<?xml version="1.0" encoding="UTF-8"?>
<svg xmlns="http://www.w3.org/2000/svg" width="240mm" height="230mm" viewBox="0 0 240 230">
  <rect width="240" height="230" fill="#fff"/>
  <rect width="240" height="230" fill="#e8e1d8"/>
<g transform="translate(23,18)" opacity="1"><rect width="194" height="189" fill="#000"/>
<polygon fill="#fff" points="97,28 101,42 116,42 104,50 108,64 97,54 86,64 90,50 78,42 93,42"/>
<circle cx="28" cy="22" r="2.2" fill="#fff"/>
<circle cx="48" cy="48" r="1.4" fill="#fff"/>
<circle cx="160" cy="26" r="2" fill="#fff"/>
<circle cx="178" cy="52" r="1.2" fill="#fff"/>
<circle cx="22" cy="70" r="1.1" fill="#fff"/>
<circle cx="70" cy="18" r="1.6" fill="#fff"/>
<circle cx="130" cy="16" r="1.3" fill="#fff"/>
<circle cx="150" cy="70" r="1.0" fill="#fff"/>
<circle cx="40" cy="100" r="0.8" fill="#fff"/>
<circle cx="170" cy="96" r="0.9" fill="#fff"/>
<circle cx="88" cy="8" r="1.1" fill="#fff"/>
<circle cx="110" cy="80" r="0.7" fill="#fff"/>
<circle cx="60" cy="64" r="0.6" fill="#fff"/>
<circle cx="14" cy="40" r="0.7" fill="#fff"/>
<circle cx="184" cy="80" r="0.6" fill="#fff"/></g>
<g transform="translate(23,18)" opacity="0.95">
    <path fill="#000" d="
      M8 178 L8 78 L97 18 L186 78 L186 178
      L148 178 L148 92
      A51 58 0 0 0 46 92
      L46 178 Z"/>
    <rect x="22" y="88" width="16" height="22" fill="#fff"/>
    <rect x="156" y="88" width="16" height="22" fill="#fff"/>
    <polygon points="97,18 97,48 88,78 106,78" fill="#000"/>
    </g>
<g transform="translate(23,18)" opacity="0.92"><path d="M0 145 C70 138 130 142 194 140 L194 189 L0 189 Z" fill="#000"/>
    <g transform="translate(58,138)">
      <ellipse cx="0" cy="0" rx="28" ry="16" fill="#000"/>
      <circle cx="24" cy="-8" r="10" fill="#000"/>
      <path d="M28 -16 L38 -22 L32 -10 Z" fill="#000"/>
      <rect x="-18" y="12" width="5" height="14" fill="#000"/>
      <rect x="8" y="12" width="5" height="14" fill="#000"/>
    </g>
    <g transform="translate(140,140)">
      <ellipse cx="0" cy="2" rx="22" ry="13" fill="#000"/>
      <ellipse cx="20" cy="-6" rx="8" ry="7" fill="#000"/>
      <rect x="22" y="-18" width="3.2" height="12" fill="#000"/>
      <rect x="16" y="-17" width="3.2" height="10" fill="#000"/>
      <rect x="-14" y="12" width="4" height="16" fill="#000"/>
      <rect x="6" y="12" width="4" height="16" fill="#000"/>
    </g></g>
<g transform="translate(23,18)" opacity="0.9"><path d="M0 150 C50 144 140 148 194 142 L194 189 L0 189 Z" fill="#000"/>
    <g transform="translate(97,148)">
      <path d="M-18 8 L-14 -6 L14 -6 L18 8 Z" fill="#000"/>
      <rect x="-16" y="-2" width="32" height="3" fill="#fff"/>
      <ellipse cx="0" cy="-10" rx="7" ry="4" fill="#000"/>
    </g>
    <g transform="translate(72,128)">
      <path d="M0 38 C-16 38 -18 20 -12 8 C-18 -2 -10 -18 0 -20 C10 -18 18 -2 12 8 C18 20 16 38 0 38 Z" fill="#000"/>
      <circle cx="0" cy="-22" r="7" fill="#000"/>
    </g>
    <g transform="translate(124,122)">
      <path d="M0 48 C-14 48 -16 22 -10 8 C-8 -6 8 -6 10 8 C16 22 14 48 0 48 Z" fill="#000"/>
      <circle cx="0" cy="-10" r="6.5" fill="#000"/>
      <rect x="10" y="-8" width="2.4" height="52" fill="#000"/>
    </g>
    <g fill="#000">
      <ellipse cx="28" cy="38" rx="22" ry="10"/>
      <ellipse cx="44" cy="34" rx="16" ry="9"/>
      <ellipse cx="16" cy="34" rx="12" ry="7"/>
      <ellipse cx="166" cy="42" rx="24" ry="11"/>
      <ellipse cx="150" cy="36" rx="14" ry="8"/>
      <ellipse cx="178" cy="36" rx="12" ry="7"/>
    </g></g>
<g transform="translate(23,18)" opacity="1"><rect x="8" y="118" width="2.2" height="42" fill="#000"/>
<rect x="17" y="118" width="2.2" height="42" fill="#000"/>
<rect x="26" y="118" width="2.2" height="42" fill="#000"/>
<rect x="35" y="118" width="2.2" height="42" fill="#000"/>
<rect x="44" y="118" width="2.2" height="42" fill="#000"/>
<rect x="53" y="118" width="2.2" height="42" fill="#000"/>
<rect x="62" y="118" width="2.2" height="42" fill="#000"/>
<rect x="71" y="118" width="2.2" height="42" fill="#000"/>
<rect x="80" y="118" width="2.2" height="42" fill="#000"/>
<rect x="89" y="118" width="2.2" height="42" fill="#000"/>
<rect x="98" y="118" width="2.2" height="42" fill="#000"/>
<rect x="107" y="118" width="2.2" height="42" fill="#000"/>
<rect x="116" y="118" width="2.2" height="42" fill="#000"/>
<rect x="125" y="118" width="2.2" height="42" fill="#000"/>
<rect x="134" y="118" width="2.2" height="42" fill="#000"/>
<rect x="143" y="118" width="2.2" height="42" fill="#000"/>
<rect x="152" y="118" width="2.2" height="42" fill="#000"/>
<rect x="161" y="118" width="2.2" height="42" fill="#000"/>
<rect x="170" y="118" width="2.2" height="42" fill="#000"/>
<rect x="179" y="118" width="2.2" height="42" fill="#000"/>
<rect x="6" y="116" width="182" height="3" fill="#000"/>
<rect x="6" y="136" width="182" height="2.4" fill="#000"/><path d="M0 158 C40 152 90 160 194 154 L194 189 L0 189 Z" fill="#000"/><g transform="translate(38,150) scale(1.05,1.05)"><ellipse cx="0" cy="0" rx="16" ry="11" fill="#000"/><circle cx="14" cy="-4" r="6" fill="#000"/><rect x="-10" y="8" width="3" height="8" fill="#000"/><rect x="6" y="8" width="3" height="8" fill="#000"/></g><g transform="translate(88,148) scale(-0.85,0.85)"><ellipse cx="0" cy="0" rx="16" ry="11" fill="#000"/><circle cx="14" cy="-4" r="6" fill="#000"/><rect x="-10" y="8" width="3" height="8" fill="#000"/><rect x="6" y="8" width="3" height="8" fill="#000"/></g><g transform="translate(148,152) scale(0.95,0.95)"><ellipse cx="0" cy="0" rx="16" ry="11" fill="#000"/><circle cx="14" cy="-4" r="6" fill="#000"/><rect x="-10" y="8" width="3" height="8" fill="#000"/><rect x="6" y="8" width="3" height="8" fill="#000"/></g></g>
<text x="120" y="222" text-anchor="middle" font-family="Georgia" font-size="6" fill="#6B4530">podgląd złożenia (makieta, nie render 3D)</text>
</svg>
